<svg version="1.1" id="Layer_1" xmlns="http://www.w3.org/2000/svg" xmlns:xlink="http://www.w3.org/1999/xlink" x="0px" y="0px"
	 width="100%" viewBox="0 0 120 120" enable-background="new 0 0 120 120" xml:space="preserve">
<path fill="#000000" opacity="1.000000" stroke="none" 
	d="
M62.000000,121.000000 
	C41.333332,121.000000 21.166666,121.000000 1.000000,121.000000 
	C1.000000,81.000000 1.000000,41.000000 1.000000,1.000000 
	C41.000000,1.000000 81.000000,1.000000 121.000000,1.000000 
	C121.000000,41.000000 121.000000,81.000000 121.000000,121.000000 
	C101.500000,121.000000 82.000000,121.000000 62.000000,121.000000 
M29.999962,69.492401 
	C29.999863,61.670475 30.005941,53.848537 29.997877,46.026619 
	C29.990236,38.615444 28.969110,37.871628 21.356606,39.826694 
	C21.356606,54.344612 21.356606,68.895645 21.356606,83.658974 
	C24.275623,83.658974 26.835018,83.658974 29.999962,83.658974 
	C29.999962,79.055595 29.999962,74.771568 29.999962,69.492401 
M56.288364,39.025196 
	C54.687447,39.127171 53.086533,39.229149 51.371567,39.338390 
	C51.371567,54.342594 51.371567,68.903496 51.371567,83.654587 
	C54.311325,83.654587 56.875580,83.654587 59.953568,83.654587 
	C59.953568,69.541725 60.010098,55.754799 59.833786,41.970852 
	C59.821255,40.990959 58.098495,40.032940 56.288364,39.025196 
M45.000881,47.604858 
	C45.000881,45.193203 45.000881,42.781548 45.000881,40.420212 
	C41.566231,40.420212 39.008968,40.420212 36.357780,40.420212 
	C36.357780,50.038872 36.357780,59.241428 36.357780,68.666382 
	C39.271042,68.666382 41.825020,68.666382 45.000919,68.666382 
	C45.000919,61.763863 45.000919,55.170483 45.000881,47.604858 
M74.000290,69.497589 
	C74.000290,64.396782 74.000290,59.295982 74.000290,54.303013 
	C70.959160,54.303013 68.694954,54.303013 66.382355,54.303013 
	C66.382355,64.330421 66.382355,74.052612 66.382355,83.685989 
	C69.031738,83.685989 71.294983,83.685989 74.000290,83.685989 
	C74.000290,79.092125 74.000290,74.791664 74.000290,69.497589 
M88.999092,78.312424 
	C88.999092,70.392220 88.999092,62.472019 88.999092,54.319523 
	C86.085609,54.319523 83.859879,54.319523 81.433434,54.319523 
	C81.433434,64.300812 81.433434,73.969864 81.433434,83.763733 
	C83.984634,83.763733 86.101768,83.763733 88.609940,83.763733 
	C88.749321,82.144676 88.873383,80.703529 88.999092,78.312424 
M80.032837,42.700558 
	C80.032837,44.624454 80.032837,46.548351 80.032837,48.669895 
	C88.631363,48.669895 96.508163,48.669895 104.688156,48.669895 
	C104.688156,45.785347 104.688156,43.229942 104.688156,40.150391 
	C96.834152,40.150391 89.250534,40.117672 81.668762,40.221092 
	C81.141037,40.228294 80.627090,41.246307 80.032837,42.700558 
M73.998741,44.513062 
	C73.903511,42.773361 73.808281,41.033665 73.718086,39.385822 
	C65.804703,38.709553 64.477501,40.862370 66.821220,49.628189 
	C69.026543,49.628189 71.247566,49.628189 73.675507,49.628189 
	C73.800133,47.997879 73.898804,46.707088 73.998741,44.513062 
z"/>
<path fill="#9C0000" opacity="1.000000" stroke="none" 
	d="
M29.999962,69.989967 
	C29.999962,74.771568 29.999962,79.055595 29.999962,83.658974 
	C26.835018,83.658974 24.275623,83.658974 21.356606,83.658974 
	C21.356606,68.895645 21.356606,54.344612 21.356606,39.826694 
	C28.969110,37.871628 29.990236,38.615444 29.997877,46.026619 
	C30.005941,53.848537 29.999863,61.670475 29.999962,69.989967 
z"/>
<path fill="#9C0000" opacity="1.000000" stroke="none" 
	d="
M56.729660,39.044975 
	C58.098495,40.032940 59.821255,40.990959 59.833786,41.970852 
	C60.010098,55.754799 59.953568,69.541725 59.953568,83.654587 
	C56.875580,83.654587 54.311325,83.654587 51.371567,83.654587 
	C51.371567,68.903496 51.371567,54.342594 51.371567,39.338390 
	C53.086533,39.229149 54.687447,39.127171 56.729660,39.044975 
z"/>
<path fill="#9C0000" opacity="1.000000" stroke="none" 
	d="
M45.000900,48.090981 
	C45.000919,55.170483 45.000919,61.763863 45.000919,68.666382 
	C41.825020,68.666382 39.271042,68.666382 36.357780,68.666382 
	C36.357780,59.241428 36.357780,50.038872 36.357780,40.420212 
	C39.008968,40.420212 41.566231,40.420212 45.000881,40.420212 
	C45.000881,42.781548 45.000881,45.193203 45.000900,48.090981 
z"/>
<path fill="#7C7D7E" opacity="1.000000" stroke="none" 
	d="
M74.000290,69.994400 
	C74.000290,74.791664 74.000290,79.092125 74.000290,83.685989 
	C71.294983,83.685989 69.031738,83.685989 66.382355,83.685989 
	C66.382355,74.052612 66.382355,64.330421 66.382355,54.303013 
	C68.694954,54.303013 70.959160,54.303013 74.000290,54.303013 
	C74.000290,59.295982 74.000290,64.396782 74.000290,69.994400 
z"/>
<path fill="#9C0000" opacity="1.000000" stroke="none" 
	d="
M88.998276,78.787399 
	C88.873383,80.703529 88.749321,82.144676 88.609940,83.763733 
	C86.101768,83.763733 83.984634,83.763733 81.433434,83.763733 
	C81.433434,73.969864 81.433434,64.300812 81.433434,54.319523 
	C83.859879,54.319523 86.085609,54.319523 88.999092,54.319523 
	C88.999092,62.472019 88.999092,70.392220 88.998276,78.787399 
z"/>
<path fill="#9C0000" opacity="1.000000" stroke="none" 
	d="
M80.069794,42.247414 
	C80.627090,41.246307 81.141037,40.228294 81.668762,40.221092 
	C89.250534,40.117672 96.834152,40.150391 104.688156,40.150391 
	C104.688156,43.229942 104.688156,45.785347 104.688156,48.669895 
	C96.508163,48.669895 88.631363,48.669895 80.032837,48.669895 
	C80.032837,46.548351 80.032837,44.624454 80.069794,42.247414 
z"/>
<path fill="#9C0000" opacity="1.000000" stroke="none" 
	d="
M73.998108,44.964680 
	C73.898804,46.707088 73.800133,47.997879 73.675507,49.628189 
	C71.247566,49.628189 69.026543,49.628189 66.821220,49.628189 
	C64.477501,40.862370 65.804703,38.709553 73.718086,39.385822 
	C73.808281,41.033665 73.903511,42.773361 73.998108,44.964680 
z"/>
</svg>